<?xml version="1.0" encoding="utf-8"?>
<!-- Generator: Adobe Illustrator 25.2.1, SVG Export Plug-In . SVG Version: 6.00 Build 0)  -->
<svg version="1.1" id="Layer_1" xmlns="http://www.w3.org/2000/svg" xmlns:xlink="http://www.w3.org/1999/xlink" x="0px" y="0px"
	 viewBox="0 0 1059 186" style="enable-background:new 0 0 1059 186;" xml:space="preserve">
<g>
	<path d="M42.3,129.8l-4.4,34.8H15.8l4.4-34.8H5.6v-23.3h17.7l2.8-23.3H11.4V59.8h17.7l4.4-34.8h22.1l-4.4,34.8h17.9l4.4-34.8h22.1
		l-4.4,34.8H106v23.3H88.4l-3,23.3h14.9v23.3H82.5l-4.4,34.8H56l4.4-34.8H42.3z M63.2,106.5l3-23.3H48.2l-2.8,23.3H63.2z"/>
	<path d="M174.6,21c13.4,0,23.3,3.2,29.6,9.7c6.4,6.5,9.5,15.2,9.5,26c0,3.8-0.4,7.4-1.3,11c-0.9,3.6-2.2,6.8-4,9.6
		c-1.8,2.9-4.1,5.3-6.9,7.3c-2.8,2-6.2,3.4-10.2,4.2v0.4c4.7,0.4,8.7,1.6,12.1,3.7c3.3,2.1,6.1,4.7,8.2,7.7
		c2.1,3.1,3.7,6.5,4.7,10.1c1,3.7,1.5,7.4,1.5,11.2c0,6.2-0.8,11.9-2.4,17.1c-1.6,5.2-4.1,9.7-7.5,13.5c-3.4,3.8-7.9,6.7-13.4,8.7
		c-5.5,2.1-12.1,3.1-19.9,3.1h-56.5V21H174.6z M164.5,77.3c3.9,0,6.8-1.4,8.8-4.3c2-2.9,3-6.3,3-10.1c0-4-1-7.5-3-10.5
		c-2-2.9-5-4.4-8.8-4.4h-9v29.3H164.5z M165.9,137.6c3.5,0,6.6-1.4,9.2-4.3c2.7-2.9,4-7.3,4-13.4c0-5.6-1.3-9.9-4-12.9
		c-2.7-2.9-5.8-4.4-9.2-4.4h-10.5v35H165.9z"/>
	<path d="M302.8,21l35,143.5H298l-3.8-25.1h-29.7l-3.8,25.1h-39.2L255.8,21H302.8z M279.1,50.4l-10.2,60.9h20.9l-10.2-60.9H279.1z"
		/>
	<path d="M385.8,21l24.1,88.4h0.4V21h35v143.5h-41l-24.9-88.6H379v88.6h-35V21H385.8z"/>
	<path d="M498.9,21v55.1h0.4L527.1,21h39.8l-36.2,62.7l40.6,80.8h-42.6l-21.9-50l-7.8,12.1v38h-37.4V21H498.9z"/>
</g>
<g>
	<path d="M622.8,119.5c-2.7-1.9-5.9-2.8-9.5-2.8c-3.1,0-5.8,0.6-8.1,1.8c-2.2,1.2-4.1,2.8-5.5,4.8c-1.5,2-2.5,4.3-3.2,6.8
		c-0.7,2.6-1,5.2-1,8c0,3,0.3,5.8,1,8.5c0.7,2.7,1.8,5,3.2,7c1.4,2,3.3,3.6,5.6,4.8c2.3,1.2,5,1.8,8.1,1.8c2.3,0,4.4-0.4,6.2-1.1
		c1.8-0.8,3.3-1.8,4.6-3.2c1.3-1.3,2.3-3,3.1-4.8c0.7-1.9,1.2-3.9,1.3-6h7c-0.7,6.6-3,11.8-6.9,15.5c-3.9,3.7-9.2,5.5-15.9,5.5
		c-4.1,0-7.6-0.7-10.7-2.1c-3-1.4-5.6-3.3-7.6-5.8c-2-2.5-3.5-5.4-4.5-8.7c-1-3.3-1.5-6.9-1.5-10.8c0-3.8,0.5-7.4,1.6-10.8
		c1.1-3.4,2.7-6.3,4.8-8.8c2.1-2.5,4.7-4.5,7.8-5.9c3.1-1.4,6.7-2.2,10.7-2.2c2.7,0,5.4,0.4,7.8,1.1c2.5,0.7,4.6,1.8,6.6,3.2
		c1.9,1.4,3.5,3.2,4.8,5.3c1.3,2.1,2.1,4.6,2.5,7.4h-7C627.2,124.2,625.4,121.4,622.8,119.5z"/>
	<path d="M664.5,112.1c5,0,8.9,1.2,11.8,3.7c2.8,2.5,4.2,5.8,4.2,10.1c0,3.2-0.7,6-2.2,8.4c-1.5,2.4-3.8,4.1-7,4.9v0.1
		c1.5,0.3,2.8,0.8,3.7,1.5c1,0.7,1.7,1.5,2.3,2.5c0.6,1,1,2,1.3,3.2c0.3,1.2,0.5,2.4,0.6,3.7c0.1,1.3,0.2,2.6,0.2,3.9
		c0,1.3,0.2,2.6,0.4,3.9c0.2,1.3,0.5,2.5,0.8,3.6c0.4,1.2,0.9,2.2,1.7,3.1h-7.8c-0.5-0.5-0.8-1.3-1-2.2c-0.2-0.9-0.3-2-0.3-3.1
		c0-1.2-0.1-2.4-0.1-3.7c-0.1-1.3-0.2-2.6-0.4-3.9c-0.2-1.3-0.4-2.5-0.7-3.6c-0.3-1.2-0.8-2.2-1.4-3c-0.6-0.9-1.5-1.5-2.5-2.1
		s-2.4-0.8-4.1-0.8h-17.1v22.5h-7v-52.6H664.5z M666,135.9c1.5-0.2,2.8-0.7,3.9-1.4c1.1-0.7,2-1.7,2.7-2.9s1-2.8,1-4.7
		c0-2.7-0.7-4.8-2.2-6.5c-1.5-1.7-3.9-2.5-7.1-2.5h-17.4v18.3h14.6C663,136.3,664.5,136.2,666,135.9z"/>
	<path d="M722.1,112.1v5.9h-29.3v16.7h27.3v5.9h-27.3v18.2h29.5v5.9h-36.5v-52.6H722.1z"/>
	<path d="M744.4,112.1c8.1,0,14.3,2.1,18.7,6.2s6.6,10.4,6.6,18.9c0,4.4-0.5,8.3-1.5,11.8c-1,3.4-2.5,6.3-4.6,8.6
		c-2.1,2.3-4.7,4.1-7.9,5.3c-3.2,1.2-7,1.8-11.3,1.8h-18.1v-52.6H744.4z M745,158.8c0.8,0,1.8-0.1,2.9-0.2c1.2-0.1,2.4-0.4,3.8-0.9
		c1.3-0.5,2.6-1.1,3.9-2c1.3-0.9,2.5-2.1,3.5-3.6c1-1.5,1.9-3.4,2.5-5.7c0.7-2.3,1-5,1-8.3c0-3.1-0.3-6-0.9-8.4
		c-0.6-2.5-1.6-4.6-3-6.3c-1.4-1.7-3.2-3.1-5.4-4c-2.2-0.9-4.9-1.4-8.2-1.4h-11.8v40.8H745z"/>
	<path d="M781.1,112.1v52.6h-7v-52.6H781.1z"/>
	<path d="M785.8,118v-5.9h42.1v5.9h-17.5v46.7h-7V118H785.8z"/>
	<path d="M882,160.8c-3.6,3.4-8.7,5-15.3,5c-6.8,0-12.1-1.6-15.9-4.8c-3.8-3.2-5.7-8.3-5.7-15.4v-33.6h7v33.6
		c0,4.7,1.3,8.3,3.8,10.7c2.5,2.4,6.1,3.6,10.8,3.6c4.5,0,7.9-1.2,10.2-3.6c2.3-2.4,3.5-6,3.5-10.7v-33.6h7v33.6
		C887.4,152.4,885.6,157.4,882,160.8z"/>
	<path d="M901.5,112.1l27.7,42.7h0.1v-42.7h6.6v52.6h-7.7l-27.5-42.2h-0.1v42.2h-6.6v-52.6H901.5z"/>
	<path d="M950.2,112.1v52.6h-7v-52.6H950.2z"/>
	<path d="M956.2,128c1.1-3.3,2.6-6.2,4.8-8.8c2.1-2.6,4.7-4.6,7.9-6.1c3.1-1.5,6.8-2.3,11-2.3s7.8,0.8,11,2.3
		c3.1,1.5,5.8,3.6,7.9,6.1c2.1,2.6,3.7,5.5,4.8,8.8c1.1,3.3,1.6,6.8,1.6,10.4c0,3.6-0.5,7-1.6,10.4c-1.1,3.3-2.6,6.3-4.8,8.8
		c-2.1,2.6-4.7,4.6-7.9,6.1c-3.1,1.5-6.8,2.2-11,2.2s-7.8-0.7-11-2.2c-3.1-1.5-5.8-3.5-7.9-6.1c-2.1-2.6-3.7-5.5-4.8-8.8
		c-1.1-3.3-1.6-6.8-1.6-10.4C954.6,134.8,955.2,131.3,956.2,128z M962.7,146.2c0.7,2.6,1.8,4.9,3.2,7c1.5,2.1,3.4,3.7,5.7,5
		c2.3,1.3,5.1,1.9,8.3,1.9c3.2,0,5.9-0.6,8.3-1.9c2.3-1.3,4.2-2.9,5.7-5c1.5-2.1,2.6-4.4,3.2-7c0.7-2.6,1-5.2,1-7.8
		c0-2.7-0.3-5.3-1-7.8c-0.7-2.6-1.8-4.9-3.2-7c-1.5-2.1-3.4-3.7-5.7-5c-2.3-1.3-5.1-1.9-8.3-1.9c-3.2,0-5.9,0.6-8.3,1.9
		c-2.3,1.3-4.2,2.9-5.7,5c-1.5,2.1-2.6,4.4-3.2,7c-0.7,2.6-1,5.2-1,7.8C961.6,141,962,143.6,962.7,146.2z"/>
	<path d="M1016.5,112.1l27.7,42.7h0.1v-42.7h6.6v52.6h-7.7l-27.5-42.2h-0.1v42.2h-6.6v-52.6H1016.5z"/>
</g>
</svg>
