<svg id="Layer_1" data-name="Layer 1" xmlns="http://www.w3.org/2000/svg" viewBox="0 0 588 186"><defs><style>.cls-1{fill:#231f20;}</style></defs><path class="cls-1" d="M42.34,129.76l-4.42,34.77H15.81l4.42-34.77H5.56V106.45H23.25l2.81-23.31H11.39V59.83H29.08L33.5,25.06H55.6L51.18,59.83H69.07l4.42-34.77H95.6L91.18,59.83h14.87V83.14H88.36l-3,23.31h14.87v23.31H82.54l-4.43,34.77H56l4.42-34.77Zm20.9-23.31,3-23.31H48.17l-2.82,23.31Z"/><path class="cls-1" d="M174.58,21q20.1,0,29.64,9.74t9.55,26a45.78,45.78,0,0,1-1.31,11,32.46,32.46,0,0,1-4,9.65,25.76,25.76,0,0,1-6.93,7.34A26.33,26.33,0,0,1,191.26,89v.4a26.86,26.86,0,0,1,12.06,3.72,27.73,27.73,0,0,1,8.24,7.73A32.81,32.81,0,0,1,216.28,111a42.5,42.5,0,0,1,1.51,11.16,57.75,57.75,0,0,1-2.41,17.08,35,35,0,0,1-7.54,13.47,34,34,0,0,1-13.37,8.74q-8.24,3.12-19.89,3.11H118.11V21ZM164.53,77.31A10.09,10.09,0,0,0,173.37,73a17.28,17.28,0,0,0,3-10.15,18.1,18.1,0,0,0-3-10.45A10,10,0,0,0,164.53,48h-9V77.31Zm1.41,60.29a12.3,12.3,0,0,0,9.24-4.32q4-4.32,4-13.36,0-8.44-4-12.87a12.21,12.21,0,0,0-9.24-4.42H155.49v35Z"/><path class="cls-1" d="M302.8,21l35,143.49H298l-3.82-25.12H264.41l-3.82,25.12H221.4L255.77,21ZM279.08,50.38l-10.25,60.89h20.9L279.48,50.38Z"/><path class="cls-1" d="M385.8,21l24.12,88.43h.4V21h35V164.53h-41L379.37,75.9H379v88.63H344V21Z"/><path class="cls-1" d="M499,21V76.1h.4L527.08,21h39.79L530.7,83.74l40.6,80.79H528.69l-21.91-50L499,126.55v38H461.56V21Z"/></svg>